<?xml version="1.0" encoding="UTF-8"?>
<!DOCTYPE svg PUBLIC "-//W3C//DTD SVG 1.1//EN" "http://www.w3.org/Graphics/SVG/1.1/DTD/svg11.dtd">
<svg xmlns="http://www.w3.org/2000/svg" version="1.1" width="512px" height="512px" style="shape-rendering:geometricPrecision; text-rendering:geometricPrecision; image-rendering:optimizeQuality; fill-rule:evenodd; clip-rule:evenodd" xmlns:xlink="http://www.w3.org/1999/xlink">
<g><path style="opacity:0.995" fill="#2c3f68" d="M 197.5,15.5 C 220.219,12.911 241.885,16.411 262.5,26C 270.675,30.5162 277.842,36.3495 284,43.5C 294.667,57.5 305.333,71.5 316,85.5C 318.627,89.9194 321.127,94.4194 323.5,99C 361.011,105.423 393.677,121.423 421.5,147C 454.913,177.313 478.08,214.147 491,257.5C 499.011,284.165 498.011,310.498 488,336.5C 483.762,345.811 477.928,353.978 470.5,361C 456.208,372.29 442.208,383.957 428.5,396C 407.998,409.219 385.665,413.553 361.5,409C 352.551,407.43 343.884,404.93 335.5,401.5C 334.201,402.09 333.368,403.09 333,404.5C 327,419.167 321,433.833 315,448.5C 303.073,468.56 285.906,482.06 263.5,489C 225.267,499.154 187.267,498.154 149.5,486C 110.253,473.712 76.4199,452.879 48,423.5C 27.9991,402.325 16.8324,377.159 14.5,348C 14.924,338.88 16.7573,330.047 20,321.5C 26.4712,305.086 33.1379,288.753 40,272.5C 42.0414,268.916 44.208,265.416 46.5,262C 37.5565,251.056 29.3899,239.556 22,227.5C 13.6954,206.511 12.6954,185.177 19,163.5C 26.7585,137.637 39.4252,114.637 57,94.5C 94.5471,51.6433 141.38,25.31 197.5,15.5 Z"/></g>
<g><path style="opacity:1" fill="#30436e" d="M 99.5,16.5 C 102.136,20.6649 104.636,24.9982 107,29.5C 107.749,30.635 107.583,31.635 106.5,32.5C 76.6865,49.2597 52.0198,71.7597 32.5,100C 27.3138,98.0579 22.6471,95.0579 18.5,91C 39.6716,59.6549 66.6716,34.8215 99.5,16.5 Z"/></g>
<g><path style="opacity:1" fill="#566bd2" d="M 199.5,31.5 C 220.415,29.2355 240.081,33.0688 258.5,43C 275.14,54.7781 283.474,70.9447 283.5,91.5C 283.849,107.255 280.683,122.255 274,136.5C 247.771,188.058 207.604,224.225 153.5,245C 131.504,253.037 108.837,256.037 85.5,254C 46.1313,245.773 28.2979,221.607 32,181.5C 38.2877,150.922 51.9544,124.255 73,101.5C 107.458,64.1887 149.625,40.8554 199.5,31.5 Z"/></g>
<g><path style="opacity:1" fill="#2c3f69" d="M 232.5,72.5 C 236.967,72.1326 241.3,72.6326 245.5,74C 248.097,76.3167 248.93,79.15 248,82.5C 231.219,119.892 214.052,157.059 196.5,194C 156.236,201.076 115.903,207.909 75.5,214.5C 70.2632,214.096 67.5966,211.263 67.5,206C 67.6313,203.747 68.1313,201.581 69,199.5C 85.1937,164.584 101.194,129.584 117,94.5C 118.167,93.3333 119.333,92.1667 120.5,91C 157.993,84.9853 195.326,78.8186 232.5,72.5 Z"/></g>
<g><path style="opacity:1" fill="#3b476f" d="M 343.5,71.5 C 349.456,71.9722 355.289,72.9722 361,74.5C 360.503,79.8377 359.67,85.171 358.5,90.5C 353.153,89.9267 347.82,89.26 342.5,88.5C 342.76,82.828 343.093,77.1613 343.5,71.5 Z"/></g>
<g><path style="opacity:1" fill="#36446c" d="M 447.5,122.5 C 451.5,127.167 455.833,131.5 460.5,135.5C 466.674,141.511 472.341,148.011 477.5,155C 473.071,158.295 468.571,161.462 464,164.5C 451.188,149.022 437.022,134.855 421.5,122C 406.731,110.945 390.731,101.945 373.5,95C 375.466,89.5758 377.799,84.4091 380.5,79.5C 406.059,89.0945 428.392,103.428 447.5,122.5 Z"/></g>
<g><path style="opacity:1" fill="#7d98e2" d="M 203.5,93.5 C 208.933,92.8126 209.599,93.9793 205.5,97C 183.333,113.833 161.167,130.667 139,147.5C 136.44,133.233 134.273,118.899 132.5,104.5C 156.39,101.45 180.056,97.7832 203.5,93.5 Z"/></g>
<g><path style="opacity:1" fill="#3e579c" d="M 299.5,92.5 C 305.75,99.6659 309.916,107.999 312,117.5C 312.92,127.242 312.587,136.908 311,146.5C 305.082,139.653 299.916,132.319 295.5,124.5C 298.451,114.032 299.784,103.365 299.5,92.5 Z"/></g>
<g><path style="opacity:1" fill="#6b83de" d="M 218.5,106.5 C 219.043,106.56 219.376,106.893 219.5,107.5C 208.779,129.998 198.446,152.665 188.5,175.5C 187.277,176.614 185.944,176.781 184.5,176C 172.375,171.104 160.375,165.937 148.5,160.5C 171.902,142.48 195.235,124.48 218.5,106.5 Z"/></g>
<g><path style="opacity:1" fill="#f58e9b" d="M 328.5,117.5 C 352.377,122.108 374.043,131.608 393.5,146C 431.962,174.752 458.795,211.919 474,257.5C 481.599,281.636 481.266,305.636 473,329.5C 463.41,348.742 447.91,359.909 426.5,363C 407.396,364.081 389.062,360.747 371.5,353C 325.028,330.361 290.361,295.861 267.5,249.5C 297.259,223.003 317.093,190.336 327,151.5C 328.326,140.21 328.826,128.877 328.5,117.5 Z"/></g>
<g><path style="opacity:0.016" fill="#796f93" d="M 447.5,122.5 C 452.833,125.833 457.167,130.167 460.5,135.5C 455.833,131.5 451.5,127.167 447.5,122.5 Z"/></g>
<g><path style="opacity:1" fill="#8eaae9" d="M 118.5,128.5 C 119.117,128.611 119.617,128.944 120,129.5C 121.81,139.449 122.81,149.449 123,159.5C 114.333,166.167 105.667,172.833 97,179.5C 96.3333,178.5 96.3333,177.5 97,176.5C 104.453,160.597 111.62,144.597 118.5,128.5 Z"/></g>
<g><path style="opacity:1" fill="#3e579d" d="M 288.5,143.5 C 294.445,151.124 300.445,158.79 306.5,166.5C 302.224,177.85 296.724,188.516 290,198.5C 283.641,190.307 277.474,181.974 271.5,173.5C 277.685,163.797 283.352,153.797 288.5,143.5 Z"/></g>
<g><path style="opacity:1" fill="#2f3f68" d="M 355.5,156.5 C 374.758,153.96 387.925,161.626 395,179.5C 398.155,197.358 391.655,210.191 375.5,218C 374.207,218.49 372.873,218.657 371.5,218.5C 371.429,223.6 372.096,228.6 373.5,233.5C 377.736,235.485 382.069,236.152 386.5,235.5C 398.241,216.98 413.907,212.813 433.5,223C 450.049,237.389 451.882,253.556 439,271.5C 422.649,285.137 406.649,284.804 391,270.5C 387.394,265.002 384.561,259.169 382.5,253C 377.465,251.599 372.465,250.099 367.5,248.5C 366.167,249.5 364.833,250.5 363.5,251.5C 370.308,272.385 363.641,287.218 343.5,296C 322.488,299.306 308.988,290.806 303,270.5C 301.178,253.642 308.011,241.809 323.5,235C 329.749,233.464 336.083,233.13 342.5,234C 346.401,235.967 350.401,237.3 354.5,238C 355.944,236.874 356.61,235.374 356.5,233.5C 355.669,228.534 355.336,223.534 355.5,218.5C 340.344,213.899 332.678,203.566 332.5,187.5C 332.308,178.718 335.308,171.218 341.5,165C 345.832,161.477 350.499,158.644 355.5,156.5 Z"/></g>
<g><path style="opacity:1" fill="#7d97e2" d="M 132.5,171.5 C 142.266,175.369 151.933,179.535 161.5,184C 143.587,187.542 125.587,190.209 107.5,192C 115.904,185.148 124.237,178.315 132.5,171.5 Z"/></g>
<g><path style="opacity:1" fill="#d36275" d="M 358.5,172.5 C 374.006,171.171 380.839,178.171 379,193.5C 373.716,203.483 365.882,206.316 355.5,202C 348.044,195.356 346.544,187.522 351,178.5C 353.478,176.361 355.978,174.361 358.5,172.5 Z"/></g>
<g><path style="opacity:1" fill="#3e579d" d="M 260.5,187.5 C 262.017,187.511 263.184,188.177 264,189.5C 269.308,196.975 274.808,204.308 280.5,211.5C 270.84,224.327 259.673,235.66 247,245.5C 239.627,238.285 233.127,230.285 227.5,221.5C 239.193,210.808 250.193,199.474 260.5,187.5 Z"/></g>
<g><path style="opacity:1" fill="#3e579d" d="M 212.5,231.5 C 214.39,231.297 215.89,231.963 217,233.5C 222.308,240.975 227.808,248.308 233.5,255.5C 220.591,265.954 206.258,273.787 190.5,279C 184.5,271 178.5,263 172.5,255C 186.687,248.414 200.02,240.581 212.5,231.5 Z"/></g>
<g><path style="opacity:1" fill="#d36275" d="M 410.5,233.5 C 424.348,232.52 431.181,238.853 431,252.5C 427.725,262.392 420.891,266.558 410.5,265C 400.08,259.496 397.247,251.329 402,240.5C 404.441,237.546 407.275,235.213 410.5,233.5 Z"/></g>
<g><path style="opacity:1" fill="#d46275" d="M 329.5,249.5 C 343.824,248.658 350.657,255.325 350,269.5C 346.016,279.241 338.85,282.741 328.5,280C 318.981,274.442 316.481,266.609 321,256.5C 323.441,253.546 326.275,251.213 329.5,249.5 Z"/></g>
<g><path style="opacity:1" fill="#3e579c" d="M 155.5,260.5 C 162.627,268.144 169.294,276.31 175.5,285C 164.227,289.372 152.561,291.705 140.5,292C 134.257,284.925 128.59,277.425 123.5,269.5C 134.605,267.682 145.272,264.682 155.5,260.5 Z"/></g>
<g><path style="opacity:1" fill="#e26f7e" d="M 253.5,260.5 C 258.033,265.862 261.866,271.862 265,278.5C 269.799,285.932 274.966,293.098 280.5,300C 272.333,306.833 264.167,313.667 256,320.5C 245.863,307.737 237.363,293.904 230.5,279C 230.759,277.739 231.426,276.739 232.5,276C 240.246,271.742 247.246,266.575 253.5,260.5 Z"/></g>
<g><path style="opacity:1" fill="#3e579c" d="M 71.5,268.5 C 71.9169,267.876 72.5836,267.543 73.5,267.5C 83.7105,269.701 94.0438,270.868 104.5,271C 109.833,278 115.167,285 120.5,292C 100.757,291.127 84.4238,283.294 71.5,268.5 Z"/></g>
<g><path style="opacity:1" fill="#45c69c" d="M 56.5,276.5 C 62.9644,283.122 69.9644,289.289 77.5,295C 94.2694,304.956 112.436,309.456 132,308.5C 142.137,308.851 152.137,307.851 162,305.5C 163.167,305.833 164.333,306.167 165.5,306.5C 157.374,324.55 150.041,342.884 143.5,361.5C 138.711,360.237 134.045,358.57 129.5,356.5C 128.558,356.608 127.725,356.941 127,357.5C 125.029,361.74 123.695,366.073 123,370.5C 127.576,372.538 132.076,374.705 136.5,377C 134.5,381.667 132.5,386.333 130.5,391C 134.92,393.029 139.42,394.862 144,396.5C 144.772,396.355 145.439,396.022 146,395.5C 147.743,391.016 149.743,386.683 152,382.5C 156.9,384.469 161.733,386.635 166.5,389C 163.912,393.653 162.079,398.487 161,403.5C 165.524,405.399 170.024,407.399 174.5,409.5C 176.645,404.39 178.979,399.39 181.5,394.5C 198.157,403.067 212.99,400.734 226,387.5C 233.043,377.098 234.21,366.098 229.5,354.5C 237.752,350.749 243.919,344.749 248,336.5C 268.474,359.94 291.974,379.44 318.5,395C 314.006,405.163 307.006,413.163 297.5,419C 276.388,430.58 253.721,436.08 229.5,435.5C 170.601,432.383 120.435,410.049 79,368.5C 63.2075,351.914 53.5408,332.247 50,309.5C 48.5217,297.752 50.6884,286.752 56.5,276.5 Z"/></g>
<g><path style="opacity:1" fill="#03b078" d="M 229.5,311.5 C 217.65,306.406 205.983,301.072 194.5,295.5C 201.428,292.798 208.262,289.798 215,286.5C 220.35,294.532 225.183,302.866 229.5,311.5 Z"/></g>
<g><path style="opacity:1" fill="#45c69c" d="M 194.5,295.5 C 205.983,301.072 217.65,306.406 229.5,311.5C 236.153,319.422 236.153,327.422 229.5,335.5C 224.728,339.089 219.394,340.255 213.5,339C 200.833,333.667 188.167,328.333 175.5,323C 178.732,315.143 182.065,307.309 185.5,299.5C 188.399,297.882 191.399,296.549 194.5,295.5 Z"/></g>
<g><path style="opacity:1" fill="#e26f7e" d="M 289.5,312.5 C 290.239,312.369 290.906,312.536 291.5,313C 302.216,324.716 313.883,335.383 326.5,345C 318.61,351.894 310.444,358.394 302,364.5C 288.938,355.441 277.105,344.941 266.5,333C 274.616,326.619 282.282,319.785 289.5,312.5 Z"/></g>
<g><path style="opacity:1" fill="#03af77" d="M 35.5,326.5 C 39.9824,336.303 44.649,346.136 49.5,356C 46.5625,364.037 43.2292,371.871 39.5,379.5C 32.5994,366.716 30.0994,353.049 32,338.5C 32.8622,334.38 34.0289,330.38 35.5,326.5 Z"/></g>
<g><path style="opacity:1" fill="#45c59b" d="M 169.5,338.5 C 183.853,343.51 197.853,349.344 211.5,356C 217.564,363.042 218.064,370.542 213,378.5C 207.731,383.245 201.564,384.745 194.5,383C 182.158,377.828 169.825,372.662 157.5,367.5C 161.239,357.693 165.239,348.027 169.5,338.5 Z"/></g>
<g><path style="opacity:1" fill="#e26f7e" d="M 339.5,354.5 C 349.654,360.078 359.988,365.411 370.5,370.5C 363.646,376.522 356.646,382.355 349.5,388C 338.088,385.466 327.421,380.966 317.5,374.5C 324.554,367.442 331.888,360.775 339.5,354.5 Z"/></g>
<g><path style="opacity:1" fill="#02b077" d="M 60.5,371.5 C 68.6462,379.814 76.6462,388.314 84.5,397C 81.2434,406.444 77.4101,415.611 73,424.5C 64.2706,416.606 56.4373,407.939 49.5,398.5C 53.3698,389.551 57.0364,380.551 60.5,371.5 Z"/></g>
<g><path style="opacity:1" fill="#e26f7e" d="M 406.5,378.5 C 411.5,379.167 416.5,379.833 421.5,380.5C 406.03,391.81 388.697,395.977 369.5,393C 375.5,387.667 381.5,382.333 387.5,377C 393.835,377.164 400.168,377.664 406.5,378.5 Z"/></g>
<g><path style="opacity:1" fill="#725170" d="M 406.5,378.5 C 411.875,378.172 417.208,378.505 422.5,379.5C 422.376,380.107 422.043,380.44 421.5,380.5C 416.5,379.833 411.5,379.167 406.5,378.5 Z"/></g>
<g><path style="opacity:1" fill="#33476d" d="M 458.5,404.5 C 462.36,408.879 465.694,413.713 468.5,419C 444.888,433.538 419.388,442.038 392,444.5C 391.397,439.445 390.564,434.445 389.5,429.5C 404.781,426.429 419.781,422.262 434.5,417C 443.002,413.584 451.002,409.417 458.5,404.5 Z"/></g>
<g><path style="opacity:1" fill="#02b177" d="M 97.5,406.5 C 111.16,415.669 125.493,423.835 140.5,431C 136.948,438.32 133.781,445.82 131,453.5C 130.152,455.874 128.819,457.874 127,459.5C 112.24,453.213 98.7403,445.046 86.5,435C 90.471,425.582 94.1377,416.082 97.5,406.5 Z"/></g>
<g><path style="opacity:0.765" fill="#648094" d="M 362.5,431.5 C 366.634,430.515 370.968,430.182 375.5,430.5C 375.5,431.833 375.5,433.167 375.5,434.5C 374.596,433.791 374.263,432.791 374.5,431.5C 370.5,431.5 366.5,431.5 362.5,431.5 Z"/></g>
<g><path style="opacity:1" fill="#2f426a" d="M 362.5,431.5 C 366.5,431.5 370.5,431.5 374.5,431.5C 374.263,432.791 374.596,433.791 375.5,434.5C 375.5,435.833 375.5,437.167 375.5,438.5C 375.5,441.167 375.5,443.833 375.5,446.5C 372.615,446.194 369.948,446.527 367.5,447.5C 365.08,447.292 362.747,447.626 360.5,448.5C 359.248,442.901 358.582,437.234 358.5,431.5C 359.833,431.5 361.167,431.5 362.5,431.5 Z"/></g>
<g><path style="opacity:1" fill="#04af77" d="M 301.5,434.5 C 299.138,444.138 293.804,452.305 285.5,459C 278.654,463.926 271.321,468.092 263.5,471.5C 262.628,469.534 262.795,467.534 264,465.5C 266.744,459.09 269.578,452.757 272.5,446.5C 282.818,443.834 292.485,439.834 301.5,434.5 Z"/></g>
<g><path style="opacity:1" fill="#02b177" d="M 154.5,436.5 C 169.771,442.021 185.437,446.021 201.5,448.5C 198.235,457.956 194.568,467.289 190.5,476.5C 187.554,477.655 184.554,477.821 181.5,477C 168.914,474.695 156.58,471.362 144.5,467C 143.978,466.439 143.645,465.772 143.5,465C 147.468,455.594 151.134,446.094 154.5,436.5 Z"/></g>
<g><path style="opacity:0.765" fill="#5c788e" d="M 375.5,438.5 C 376.477,441.287 376.81,444.287 376.5,447.5C 373.5,447.5 370.5,447.5 367.5,447.5C 369.948,446.527 372.615,446.194 375.5,446.5C 375.5,443.833 375.5,441.167 375.5,438.5 Z"/></g>
<g><path style="opacity:1" fill="#02b178" d="M 243.5,450.5 C 246.5,450.5 249.5,450.5 252.5,450.5C 249.373,459.209 246.04,467.876 242.5,476.5C 230.65,479.236 218.65,480.069 206.5,479C 210.455,470.305 214.122,461.472 217.5,452.5C 226.324,451.833 234.991,451.167 243.5,450.5 Z"/></g>
</svg>
